<svg width="628" height="616" viewBox="0 0 628 616" fill="none" xmlns="http://www.w3.org/2000/svg">
<ellipse rx="23.5" ry="24" transform="matrix(1 0 0 -1 121.5 582)" fill="#2996FD"/>
<g filter="url(#filter0_d)">
<ellipse cx="325" cy="260" rx="259" ry="260" fill="url(#paint0_linear)"/>
</g>
<ellipse rx="29.5" ry="30" transform="matrix(1 0 0 -1 343.5 30)" fill="#2996FD"/>
<ellipse cx="192" cy="53.5" rx="15" ry="14.5" transform="rotate(-180 192 53.5)" fill="#612EFD"/>
<ellipse cx="161.5" cy="361.5" rx="16.5" ry="15.5" transform="rotate(-180 161.5 361.5)" fill="#612EFD"/>
<circle r="14" transform="matrix(1 0 0 -1 14 195)" fill="#FE686D"/>
<ellipse rx="14" ry="14.5" transform="matrix(1 0 0 -1 573 418.5)" fill="#FE686D"/>
<defs>
<filter id="filter0_d" x="22" y="0" width="606" height="616" filterUnits="userSpaceOnUse" color-interpolation-filters="sRGB">
<feFlood flood-opacity="0" result="BackgroundImageFix"/>
<feColorMatrix in="SourceAlpha" type="matrix" values="0 0 0 0 0 0 0 0 0 0 0 0 0 0 0 0 0 0 127 0"/>
<feOffset dy="52"/>
<feGaussianBlur stdDeviation="22"/>
<feColorMatrix type="matrix" values="0 0 0 0 0.996078 0 0 0 0 0.427451 0 0 0 0 0.443137 0 0 0 0.21 0"/>
<feBlend mode="normal" in2="BackgroundImageFix" result="effect1_dropShadow"/>
<feBlend mode="normal" in="SourceGraphic" in2="effect1_dropShadow" result="shape"/>
</filter>
<linearGradient id="paint0_linear" x1="266.136" y1="8.2449e-07" x2="325.45" y2="519.949" gradientUnits="userSpaceOnUse">
<stop stop-color="#FE666B"/>
<stop offset="1" stop-color="#FF9698"/>
</linearGradient>
</defs>
</svg>
