<svg width="332" height="204" viewBox="0 0 332 204" fill="none" xmlns="http://www.w3.org/2000/svg">
<g filter="url(#filter0_d)">
<rect x="54" y="50" width="224" height="96" rx="48" fill="white"/>
</g>
<path d="M173.56 105.192C172.344 105.192 171.184 105.024 170.08 104.688C168.992 104.352 168.12 103.888 167.464 103.296C167.16 103.04 167.008 102.712 167.008 102.312C167.008 102.024 167.088 101.784 167.248 101.592C167.408 101.384 167.6 101.28 167.824 101.28C168.048 101.28 168.32 101.384 168.64 101.592C170.064 102.648 171.688 103.176 173.512 103.176C174.792 103.176 175.776 102.936 176.464 102.456C177.152 101.976 177.496 101.288 177.496 100.392C177.496 99.688 177.176 99.16 176.536 98.808C175.896 98.456 174.872 98.12 173.464 97.8C172.12 97.512 171.016 97.184 170.152 96.816C169.288 96.448 168.608 95.952 168.112 95.328C167.632 94.688 167.392 93.88 167.392 92.904C167.392 91.928 167.656 91.064 168.184 90.312C168.728 89.544 169.48 88.952 170.44 88.536C171.4 88.104 172.496 87.888 173.728 87.888C174.864 87.888 175.912 88.048 176.872 88.368C177.832 88.688 178.648 89.16 179.32 89.784C179.64 90.056 179.8 90.384 179.8 90.768C179.8 91.04 179.712 91.28 179.536 91.488C179.376 91.696 179.184 91.8 178.96 91.8C178.752 91.8 178.488 91.696 178.168 91.488C177.432 90.928 176.736 90.528 176.08 90.288C175.44 90.032 174.664 89.904 173.752 89.904C172.52 89.904 171.56 90.16 170.872 90.672C170.184 91.168 169.84 91.864 169.84 92.76C169.84 93.528 170.144 94.112 170.752 94.512C171.36 94.896 172.336 95.248 173.68 95.568C175.088 95.888 176.224 96.224 177.088 96.576C177.968 96.912 178.664 97.384 179.176 97.992C179.704 98.584 179.968 99.352 179.968 100.296C179.968 101.256 179.696 102.112 179.152 102.864C178.624 103.6 177.872 104.176 176.896 104.592C175.936 104.992 174.824 105.192 173.56 105.192ZM187.743 105.168C186.607 105.168 185.607 104.92 184.743 104.424C183.895 103.928 183.231 103.224 182.751 102.312C182.287 101.4 182.055 100.344 182.055 99.144C182.055 97.928 182.295 96.856 182.775 95.928C183.271 95 183.959 94.28 184.839 93.768C185.719 93.256 186.727 93 187.863 93C188.471 93 189.079 93.088 189.687 93.264C190.311 93.44 190.863 93.68 191.343 93.984C191.855 94.336 192.111 94.744 192.111 95.208C192.111 95.48 192.039 95.712 191.895 95.904C191.751 96.08 191.567 96.168 191.343 96.168C191.199 96.168 191.055 96.136 190.911 96.072C190.767 95.992 190.583 95.88 190.359 95.736C189.959 95.48 189.583 95.288 189.231 95.16C188.895 95.016 188.487 94.944 188.007 94.944C186.919 94.944 186.071 95.312 185.463 96.048C184.871 96.784 184.575 97.808 184.575 99.12C184.575 100.432 184.871 101.448 185.463 102.168C186.055 102.872 186.895 103.224 187.983 103.224C188.463 103.224 188.887 103.152 189.255 103.008C189.623 102.864 189.999 102.672 190.383 102.432C190.559 102.32 190.735 102.224 190.911 102.144C191.087 102.064 191.247 102.024 191.391 102.024C191.615 102.024 191.799 102.12 191.943 102.312C192.087 102.488 192.159 102.712 192.159 102.984C192.159 103.208 192.095 103.416 191.967 103.608C191.855 103.784 191.655 103.968 191.367 104.16C190.887 104.48 190.327 104.728 189.687 104.904C189.047 105.08 188.399 105.168 187.743 105.168ZM200.472 93.048C201.24 93 201.624 93.328 201.624 94.032C201.624 94.384 201.536 94.648 201.36 94.824C201.184 95 200.88 95.104 200.448 95.136L199.728 95.208C198.72 95.304 197.968 95.656 197.472 96.264C196.992 96.872 196.752 97.608 196.752 98.472V103.968C196.752 104.352 196.64 104.64 196.416 104.832C196.192 105.024 195.904 105.12 195.552 105.12C195.2 105.12 194.904 105.024 194.664 104.832C194.44 104.64 194.328 104.352 194.328 103.968V94.2C194.328 93.832 194.44 93.552 194.664 93.36C194.904 93.152 195.2 93.048 195.552 93.048C195.872 93.048 196.136 93.152 196.344 93.36C196.568 93.552 196.68 93.824 196.68 94.176V95.328C197 94.624 197.464 94.088 198.072 93.72C198.68 93.352 199.368 93.136 200.136 93.072L200.472 93.048ZM207.971 105.168C206.819 105.168 205.803 104.92 204.923 104.424C204.059 103.928 203.387 103.224 202.907 102.312C202.443 101.384 202.211 100.312 202.211 99.096C202.211 97.864 202.443 96.792 202.907 95.88C203.387 94.952 204.059 94.24 204.923 93.744C205.803 93.248 206.819 93 207.971 93C209.123 93 210.131 93.248 210.995 93.744C211.875 94.24 212.547 94.952 213.011 95.88C213.491 96.792 213.731 97.864 213.731 99.096C213.731 100.312 213.491 101.384 213.011 102.312C212.547 103.224 211.875 103.928 210.995 104.424C210.131 104.92 209.123 105.168 207.971 105.168ZM207.971 103.248C209.043 103.248 209.859 102.896 210.419 102.192C210.995 101.488 211.283 100.456 211.283 99.096C211.283 97.752 210.995 96.728 210.419 96.024C209.843 95.304 209.027 94.944 207.971 94.944C206.915 94.944 206.099 95.304 205.523 96.024C204.947 96.728 204.659 97.752 204.659 99.096C204.659 100.456 204.939 101.488 205.499 102.192C206.075 102.896 206.899 103.248 207.971 103.248ZM217.654 105.12C217.302 105.12 217.006 105.024 216.766 104.832C216.542 104.64 216.43 104.352 216.43 103.968V89.136C216.43 88.752 216.542 88.464 216.766 88.272C217.006 88.064 217.302 87.96 217.654 87.96C218.006 87.96 218.294 88.064 218.518 88.272C218.742 88.464 218.854 88.752 218.854 89.136V103.968C218.854 104.352 218.742 104.64 218.518 104.832C218.294 105.024 218.006 105.12 217.654 105.12ZM223.467 105.12C223.115 105.12 222.819 105.024 222.579 104.832C222.355 104.64 222.243 104.352 222.243 103.968V89.136C222.243 88.752 222.355 88.464 222.579 88.272C222.819 88.064 223.115 87.96 223.467 87.96C223.819 87.96 224.107 88.064 224.331 88.272C224.555 88.464 224.667 88.752 224.667 89.136V103.968C224.667 104.352 224.555 104.64 224.331 104.832C224.107 105.024 223.819 105.12 223.467 105.12Z" fill="#2996FD"/>
<circle cx="106" cy="98" r="38" fill="#2996FD"/>
<path d="M106 107.375L90.375 91.75L92.5625 89.5625L106 103L119.438 89.5625L121.625 91.75L106 107.375Z" fill="white"/>
<defs>
<filter id="filter0_d" x="0" y="0" width="332" height="204" filterUnits="userSpaceOnUse" color-interpolation-filters="sRGB">
<feFlood flood-opacity="0" result="BackgroundImageFix"/>
<feColorMatrix in="SourceAlpha" type="matrix" values="0 0 0 0 0 0 0 0 0 0 0 0 0 0 0 0 0 0 127 0"/>
<feOffset dy="4"/>
<feGaussianBlur stdDeviation="27"/>
<feColorMatrix type="matrix" values="0 0 0 0 0.898039 0 0 0 0 0.898039 0 0 0 0 0.898039 0 0 0 1 0"/>
<feBlend mode="normal" in2="BackgroundImageFix" result="effect1_dropShadow"/>
<feBlend mode="normal" in="SourceGraphic" in2="effect1_dropShadow" result="shape"/>
</filter>
</defs>
</svg>
